<svg xmlns="http://www.w3.org/2000/svg" viewBox="0 0 70.85 95.3"><defs><style>.cls-1{fill:#596c89;}.cls-2,.cls-3{fill:#fff;}.cls-2{opacity:0.5;}.cls-4{fill:#a1bedf;}</style></defs><g id="Слой_2" data-name="Слой 2"><g id="Layer_1" data-name="Layer 1"><path class="cls-1" d="M56.35,95.3H14.5A14.5,14.5,0,0,1,0,80.8V14.5A14.5,14.5,0,0,1,14.5,0H50.85l20,20.09V80.8A14.5,14.5,0,0,1,56.35,95.3Z"/><path class="cls-2" d="M70.85,20.1H55A4.09,4.09,0,0,1,50.88,16l0-16"/><rect class="cls-3" x="29.69" width="4.65" height="4.65"/><rect class="cls-3" x="34.33" y="4.65" width="4.65" height="4.65"/><rect class="cls-3" x="29.69" y="9.3" width="4.65" height="4.65"/><rect class="cls-3" x="34.33" y="13.94" width="4.65" height="4.65"/><rect class="cls-3" x="29.69" y="18.59" width="4.65" height="4.65"/><rect class="cls-3" x="34.33" y="23.24" width="4.65" height="4.65"/><rect class="cls-3" x="29.69" y="27.89" width="4.65" height="4.65"/><rect class="cls-3" x="34.33" y="32.53" width="4.65" height="4.65"/><rect class="cls-3" x="29.69" y="37.18" width="4.65" height="4.65"/><rect class="cls-3" x="34.33" y="41.83" width="4.65" height="4.65"/><rect class="cls-3" x="29.69" y="46.48" width="9.3" height="12.96"/><rect class="cls-4" x="32.01" y="52.96" width="4.65" height="4.65"/></g></g></svg>