<svg xmlns="http://www.w3.org/2000/svg" viewBox="0 0 735.77 178"><defs><style>.cls-1{fill:#269dc6;}.cls-2{fill:#085485;}.cls-3{fill:#188bc7;}.cls-4{fill:#3cbbed;}.cls-5{fill:#056ca4;}</style></defs><g id="Слой_2" data-name="Слой 2"><g id="Слой_1-2" data-name="Слой 1"><circle class="cls-1" cx="75.74" cy="75.74" r="75.74"/><rect class="cls-2" y="102.25" width="75.74" height="75.74"/><rect class="cls-3" width="75.74" height="75.74"/><rect class="cls-4" x="75.74" width="75.74" height="75.74"/><rect class="cls-5" y="75.74" width="75.74" height="75.74"/><path d="M204.69,155.49v-119h22.78l50.66,84H266.06l49.81-84h22.61l.34,119H313l-.17-79.39h4.76l-39.78,66.81H265.38L224.75,76.1h5.78v79.39Z"/><path d="M351.4,155.49l53-119h27.2l53.21,119H456L412.43,50.43h10.88L379.62,155.49ZM377.92,130l7.31-20.91h61.2L453.91,130Z"/><path d="M497.26,155.49v-119h51.51q16,0,27.54,5.18a40.43,40.43,0,0,1,17.85,14.88q6.29,9.69,6.29,23.12,0,13.26-6.29,22.86a40,40,0,0,1-17.85,14.71q-11.56,5.1-27.54,5.1H512.56l12.24-12.07v45.22Zm27.54-42.16-12.24-12.92h34.68q12.75,0,19-5.53t6.29-15.21q0-9.86-6.29-15.3t-19-5.44H512.56L524.8,45.84Zm48.11,42.16-29.75-43.18h29.41l30.09,43.18Z"/><path d="M622.21,155.49v-119h27.37v119Zm24.65-27.2L645.33,96.5l56.95-60h30.6L681.54,91.74l-15.3,16.32Zm56.78,27.2-42.33-51.85,18-19.55,56.44,71.4Z"/></g></g></svg>