<svg xmlns="http://www.w3.org/2000/svg" viewBox="0 0 70.85 95.3"><defs><style>.cls-1{fill:#ee3e2c;}.cls-2,.cls-3{fill:#fff;}.cls-2{opacity:0.5;}</style></defs><g id="Слой_2" data-name="Слой 2"><g id="Layer_1" data-name="Layer 1"><path class="cls-1" d="M56.35,95.3H14.5A14.5,14.5,0,0,1,0,80.8V14.5A14.5,14.5,0,0,1,14.5,0H50.85l20,20.09V80.8A14.5,14.5,0,0,1,56.35,95.3Z"/><path class="cls-2" d="M70.85,20.1H55A4.09,4.09,0,0,1,50.88,16l0-16"/><path class="cls-3" d="M34.93,51.11H53.51A18.58,18.58,0,1,1,34.93,32.54Z"/><path class="cls-3" d="M37.92,48.19V29.62A18.57,18.57,0,0,1,56.49,48.19Z"/></g></g></svg>