<svg xmlns="http://www.w3.org/2000/svg" viewBox="0 0 70.85 95.3"><defs><style>.cls-1{fill:#9954a1;}.cls-2,.cls-3{fill:#fff;}.cls-2{opacity:0.5;}</style></defs><g id="Слой_2" data-name="Слой 2"><g id="Layer_1" data-name="Layer 1"><path class="cls-1" d="M56.35,95.3H14.5A14.5,14.5,0,0,1,0,80.8V14.5A14.5,14.5,0,0,1,14.5,0H50.85l20,20.09V80.8A14.5,14.5,0,0,1,56.35,95.3Z"/><path class="cls-2" d="M70.85,20.1H55A4.09,4.09,0,0,1,50.88,16l0-16"/><path class="cls-3" d="M50.46,34.93a1.09,1.09,0,0,0-.9-.27L29.08,37.35a1.14,1.14,0,0,0-1,1.13V60.6A7.79,7.79,0,0,0,23,58.72c-4.08,0-7.4,3-7.4,6.7s3.32,6.71,7.4,6.71,7.39-3,7.39-6.71V45.17l18.21-2.4V54.61a7.57,7.57,0,0,0-4.92-1.78c-4,0-7.2,2.93-7.2,6.53s3.23,6.53,7.2,6.53,7.2-2.93,7.2-6.53V35.79A1.14,1.14,0,0,0,50.46,34.93Z"/></g></g></svg>