<svg xmlns="http://www.w3.org/2000/svg" viewBox="0 0 70.85 95.3"><defs><style>.cls-1{fill:#f6921e;}.cls-2{fill:#f9b617;}</style></defs><g id="Слой_2" data-name="Слой 2"><g id="Layer_1" data-name="Layer 1"><path class="cls-1" d="M14.5,3.67H56.35c8,0,14.5,6,14.5,13.39V78.25c0,7.39-6.49,13.38-14.5,13.38H20L0,73.09v-56C0,9.66,6.49,3.67,14.5,3.67Z"/><path class="cls-2" d="M42.5,0H10.94C4.9,0,0,6.49,0,14.5V80.8c0,8,4.9,14.5,10.94,14.5H38.35L53.43,75.21V14.5C53.43,6.49,48.54,0,42.5,0Z"/><path class="cls-2" d="M64.87,85.55V57.41A9.82,9.82,0,0,0,55,47.65H9.91A9.81,9.81,0,0,0,.05,57.41V81.85L13.71,95.3H55A9.81,9.81,0,0,0,64.87,85.55Z"/></g></g></svg>