<svg xmlns="http://www.w3.org/2000/svg" viewBox="0 0 70.85 95.3"><defs><style>.cls-1{fill:#809bbe;}.cls-2{fill:#fff;opacity:0.5;}.cls-3{fill:#e6eaf1;}</style></defs><g id="Слой_2" data-name="Слой 2"><g id="Layer_1" data-name="Layer 1"><path class="cls-1" d="M56.35,95.3H14.5A14.5,14.5,0,0,1,0,80.8V14.5A14.5,14.5,0,0,1,14.5,0H50.85l20,20.09V80.8A14.5,14.5,0,0,1,56.35,95.3Z"/><path class="cls-2" d="M70.85,20.1H55A4.09,4.09,0,0,1,50.88,16l0-16"/><path class="cls-3" d="M44.65,51,27.2,38.79a.63.63,0,0,0-1,.51V63.67a.64.64,0,0,0,1,.52L44.65,52A.63.63,0,0,0,44.65,51Z"/></g></g></svg>